<?xml version="1.0" standalone="no"?>
<!DOCTYPE svg PUBLIC "-//W3C//DTD SVG 20010904//EN"
 "http://www.w3.org/TR/2001/REC-SVG-20010904/DTD/svg10.dtd">
<svg version="1.0" xmlns="http://www.w3.org/2000/svg"
 width="180.000000pt" height="180.000000pt" viewBox="-40 -85 280.000000 280.000000"
 preserveAspectRatio="xMidYMid meet">

<g transform="translate(0.000000,180.000000) scale(0.100000,-0.100000)"
fill="#ffffff" stroke="none">
<path d="M810 1721 c-30 -15 -75 -40 -100 -55 -25 -14 -93 -51 -152 -81 -59
-30 -124 -69 -144 -87 -44 -39 -73 -99 -74 -150 0 -20 -13 -104 -29 -185 -55
-279 -69 -419 -51 -498 29 -125 47 -281 56 -485 7 -161 11 -180 35 -180 19 0
20 5 14 132 -6 141 -24 300 -53 463 -21 125 -19 257 7 400 11 61 30 169 42
240 11 72 23 140 25 153 8 43 71 97 176 152 57 29 148 79 204 111 108 63 154
73 204 44 20 -11 345 -173 459 -228 31 -15 46 -40 38 -61 -6 -15 -9 -15 -29
-2 -13 8 -86 40 -163 71 -77 30 -175 73 -218 95 -93 48 -124 49 -208 11 -35
-16 -99 -44 -142 -61 -43 -18 -76 -34 -74 -37 5 -4 66 17 209 73 49 19 95 34
105 34 9 0 51 -17 92 -39 42 -21 135 -62 206 -91 174 -70 185 -76 185 -103 0
-31 -36 -85 -65 -99 -21 -9 -37 -8 -83 7 -200 63 -337 76 -445 41 -117 -37
-143 -83 -91 -160 59 -87 174 -86 321 1 80 49 120 59 168 43 35 -12 75 -52 75
-76 0 -8 -35 -41 -77 -75 -96 -76 -425 -395 -443 -429 -22 -40 -4 -441 26
-583 4 -18 12 -27 25 -27 15 0 19 7 19 39 0 22 -4 42 -9 45 -11 7 -19 100 -27
323 l-7 183 54 52 c30 28 122 117 204 198 83 81 171 161 196 178 74 49 95 96
64 138 -25 33 -19 54 15 54 35 0 110 68 110 98 0 11 9 27 19 36 28 25 35 68
18 107 -11 28 -29 41 -93 72 -74 36 -151 74 -366 183 -106 54 -149 57 -228 15z
m273 -447 c37 -9 67 -20 67 -26 0 -5 -17 -17 -38 -26 -21 -9 -61 -32 -90 -50
-87 -57 -221 -62 -237 -10 -4 10 -11 18 -16 18 -14 0 -11 46 4 58 23 19 127
47 185 50 31 2 87 -5 125 -14z"/>
</g>
</svg>
