<?xml version="1.0" standalone="no"?>
<!DOCTYPE svg PUBLIC "-//W3C//DTD SVG 20010904//EN"
 "http://www.w3.org/TR/2001/REC-SVG-20010904/DTD/svg10.dtd">
<svg version="1.0" xmlns="http://www.w3.org/2000/svg"
 width="180.000000pt" height="180.000000pt" viewBox="-27 -15 280.000000 280.000000"
 preserveAspectRatio="xMidYMid meet">

<g transform="translate(0.000000,180.000000) scale(0.100000,-0.100000)"
fill="#ffffff" stroke="none">
<path d="M435 1550 c-8 -14 19 -47 84 -103 71 -61 104 -79 281 -156 170 -74
388 -181 433 -213 108 -74 359 -308 396 -369 24 -39 27 -72 8 -88 -22 -17
-229 129 -407 288 -45 40 -69 39 -34 -1 46 -50 220 -188 337 -266 71 -47 131
-91 134 -99 7 -19 -4 -57 -24 -82 l-18 -22 -45 26 c-124 72 -268 169 -370 250
-88 70 -114 84 -110 60 5 -23 253 -203 408 -296 152 -91 150 -89 129 -134 -19
-39 -65 -65 -117 -65 -22 0 -44 12 -78 43 -26 24 -119 95 -208 159 -88 64
-166 124 -173 132 -16 19 -44 21 -39 4 3 -7 94 -79 204 -160 109 -80 207 -157
217 -171 18 -23 18 -26 3 -56 -28 -52 -56 -65 -120 -51 -59 12 -189 85 -263
147 -83 70 -315 223 -338 223 -2 0 24 -42 59 -92 88 -129 119 -193 111 -229
-6 -28 -56 -79 -78 -79 -15 0 -385 377 -402 410 -7 14 -22 65 -34 113 -11 48
-32 110 -46 138 -26 51 -147 185 -217 240 -35 28 -37 29 -47 11 -9 -16 5 -34
93 -124 117 -118 136 -148 165 -271 11 -48 30 -106 42 -130 13 -24 105 -126
218 -240 l196 -198 40 5 c30 5 49 16 77 47 49 53 58 100 33 162 -9 23 27 24
50 1 57 -57 182 -134 268 -166 117 -42 168 -33 228 42 25 31 39 40 63 40 39 0
103 36 130 73 16 22 21 41 19 84 -1 35 4 67 13 86 11 20 14 42 9 66 -3 20 -9
65 -13 101 -4 36 -14 77 -23 90 -46 70 -284 295 -394 372 -56 39 -300 168
-319 168 -2 0 -42 17 -88 39 -45 21 -118 55 -161 75 -84 38 -126 67 -199 133
-47 43 -71 52 -83 33z"/>
</g>
</svg>
