<?xml version="1.0" standalone="no"?>
<!DOCTYPE svg PUBLIC "-//W3C//DTD SVG 20010904//EN"
 "http://www.w3.org/TR/2001/REC-SVG-20010904/DTD/svg10.dtd">
<svg version="1.0" xmlns="http://www.w3.org/2000/svg"
 width="180.000000pt" height="180.000000pt" viewBox="-20 -15 280.000000 280.000000"
 preserveAspectRatio="xMidYMid meet">

<g transform="translate(0.000000,180.000000) scale(0.100000,-0.100000)"
fill="#ffffff" stroke="none">
<path d="M511 1577 c-8 -11 16 -37 116 -123 70 -60 145 -125 167 -144 l40 -35
195 -6 c211 -7 355 -32 485 -85 125 -51 150 -99 182 -354 21 -168 19 -215 -8
-234 -42 -29 -55 -21 -62 38 -7 49 -22 129 -56 286 -12 55 -30 89 -30 57 0 -9
9 -56 21 -104 27 -116 59 -306 59 -349 0 -54 -59 -134 -99 -134 -5 0 -12 26
-16 58 -16 142 -76 395 -90 380 -3 -2 11 -70 29 -151 37 -158 53 -284 42 -342
-8 -40 -52 -75 -97 -75 l-26 0 -12 133 c-11 117 -17 161 -36 244 -3 13 -9 23
-13 23 -4 0 0 -46 9 -102 28 -166 35 -298 16 -333 -52 -100 -149 -110 -313
-33 -111 53 -154 114 -154 219 0 54 24 142 44 158 15 12 27 4 80 -56 27 -30
27 -33 12 -54 -19 -27 -22 -49 -4 -31 20 20 45 14 63 -16 27 -42 57 -72 67
-66 5 3 -4 20 -19 37 -32 37 -50 87 -58 169 -8 75 -23 75 -17 1 l5 -58 -55 50
c-41 37 -54 55 -51 70 4 16 -3 12 -32 -15 -41 -39 -72 -90 -55 -90 8 0 9 -15
4 -45 -22 -147 38 -242 192 -304 84 -34 92 -57 19 -55 -46 1 -291 76 -356 110
-39 20 -84 76 -119 149 -24 51 -34 89 -41 163 -19 186 -5 163 -169 280 -80 57
-169 121 -198 143 -56 41 -72 47 -72 26 0 -8 24 -30 53 -50 379 -267 347 -236
347 -339 0 -82 12 -154 30 -193 5 -11 20 -45 34 -77 33 -76 90 -131 157 -153
30 -9 63 -20 74 -25 54 -24 226 -72 273 -77 46 -5 55 -3 68 16 12 16 25 21 63
21 61 0 100 20 148 74 25 28 50 45 71 49 47 9 99 53 107 88 5 20 20 38 45 54
45 28 90 89 90 122 0 31 10 53 25 53 7 0 27 16 44 35 38 43 38 56 11 260 -38
287 -60 328 -210 387 -149 59 -320 88 -517 88 l-160 0 -40 33 c-39 30 -147
127 -237 209 -46 42 -49 43 -65 25z"/>
</g>
</svg>
