<?xml version="1.0" standalone="no"?>
<!DOCTYPE svg PUBLIC "-//W3C//DTD SVG 20010904//EN"
 "http://www.w3.org/TR/2001/REC-SVG-20010904/DTD/svg10.dtd">
<svg version="1.0" xmlns="http://www.w3.org/2000/svg"
 width="210.000000pt" height="180.000000pt" viewBox="-58 -25 280.000000 210.000000"
 preserveAspectRatio="xMidYMid meet">

<g transform="translate(0.000000,180.000000) scale(0.100000,-0.100000)"
fill="#ffffff" stroke="none">
<path d="M1035 1311 c-71 -25 -125 -62 -172 -115 -22 -25 -49 -46 -59 -46 -18
0 -104 26 -389 115 -160 51 -176 52 -208 23 -37 -32 -43 -74 -17 -116 20 -33
80 -65 335 -182 28 -12 74 -33 103 -47 28 -13 52 -27 52 -32 0 -5 -19 -11 -42
-14 -24 -3 -140 -17 -258 -32 -258 -31 -276 -36 -297 -80 -14 -30 -14 -38 -2
-72 25 -65 55 -74 255 -72 95 1 176 -1 182 -5 5 -3 13 -23 17 -43 8 -44 25
-66 77 -99 21 -14 38 -31 38 -38 0 -26 50 -74 95 -92 59 -22 162 -15 230 16
41 19 69 23 160 24 133 2 165 15 261 112 l64 64 320 0 c313 0 320 0 320 20 0
20 -7 20 -329 20 l-329 0 -75 -75 c-41 -41 -91 -82 -111 -90 -38 -16 -171 -21
-180 -6 -3 4 6 18 19 31 13 13 29 38 35 56 14 42 -7 88 -48 102 -24 8 -29 15
-25 34 6 33 -28 62 -75 62 -20 0 -124 -12 -231 -27 -157 -22 -233 -27 -393
-27 -198 0 -199 0 -223 25 -30 29 -31 45 -8 74 14 16 37 23 103 31 463 56 506
62 519 75 26 26 -11 49 -266 166 -159 73 -250 121 -260 135 -19 29 -14 63 12
79 17 11 41 6 160 -31 77 -25 206 -65 286 -91 l146 -46 -5 -42 c-3 -32 4 -63
28 -126 35 -90 41 -99 81 -99 48 0 81 53 94 150 8 62 19 80 46 80 17 0 19 -8
17 -88 -2 -71 1 -94 15 -116 20 -30 74 -66 97 -66 8 1 -1 9 -21 20 -62 33 -74
61 -74 175 l0 100 -35 -3 c-45 -3 -56 -19 -64 -94 -9 -93 -54 -156 -94 -132
-23 15 -71 140 -72 187 0 21 6 53 14 72 32 76 169 175 240 175 39 0 115 -36
225 -104 l86 -54 122 -11 c66 -6 223 -11 347 -11 219 0 226 1 226 20 0 19 -7
20 -222 20 -123 0 -277 5 -344 9 -120 9 -121 9 -190 54 -92 59 -181 103 -224
110 -22 4 -54 0 -85 -12z m-21 -607 c27 -10 18 -41 -21 -72 -82 -64 -207 -112
-294 -112 -47 0 -63 5 -88 25 -31 27 -59 91 -45 105 5 4 88 18 184 30 96 12
177 23 179 26 6 6 67 5 85 -2z m77 -105 c43 -43 -16 -126 -122 -174 -73 -32
-114 -40 -175 -30 -50 7 -110 53 -101 78 2 6 27 15 56 20 66 9 186 59 237 97
46 35 76 38 105 9z"/>
</g>
</svg>
