<?xml version="1.0" encoding="iso-8859-1"?>
<!-- Generator: Adobe Illustrator 19.0.0, SVG Export Plug-In . SVG Version: 6.00 Build 0)  -->
<svg version="1.1" id="Layer_1" xmlns="http://www.w3.org/2000/svg" xmlns:xlink="http://www.w3.org/1999/xlink" x="0px" y="0px"
	 viewBox="0 0 512.002 512.002" style="enable-background:new 0 0 512.002 512.002;" xml:space="preserve">
<g>
	<path style="fill:#ffffff;" d="M457.579,365.303c-4.023,0-8.044-1.536-11.113-4.603c-6.137-6.137-6.137-16.089,0-22.228
		c21.989-21.989,34.101-51.278,34.101-82.472s-12.11-60.483-34.099-82.474c-6.137-6.137-6.137-16.089,0-22.228
		c6.139-6.136,16.088-6.136,22.228,0c27.927,27.927,43.306,65.112,43.306,104.701s-15.38,76.773-43.308,104.699
		C465.623,363.769,461.599,365.303,457.579,365.303z"/>
	<path style="fill:#ffffff;" d="M417.066,324.79c-4.023,0-8.044-1.536-11.113-4.603c-6.137-6.137-6.137-16.089,0-22.228
		c23.137-23.137,23.137-60.782,0-83.918c-6.137-6.137-6.137-16.089,0-22.228c6.139-6.136,16.088-6.136,22.228,0
		c35.393,35.393,35.393,92.981,0,128.373C425.11,323.255,421.089,324.79,417.066,324.79z"/>
</g>
</svg>
