<?xml version="1.0" encoding="iso-8859-1"?>
<!-- Generator: Adobe Illustrator 19.0.0, SVG Export Plug-In . SVG Version: 6.00 Build 0)  -->
<svg version="1.1" id="Layer_1" xmlns="http://www.w3.org/2000/svg" xmlns:xlink="http://www.w3.org/1999/xlink" x="0px" y="0px"
	 viewBox="0 0 512.001 512.001" style="enable-background:new 0 0 512.001 512.001;" xml:space="preserve">
<g>

	<path style="fill:#ffffff;" d="M412.437,313.476c-3.939,0-7.876-1.503-10.881-4.507c-6.009-6.009-6.009-15.753,0-21.764
		l84.174-84.174c6.011-6.008,15.752-6.008,21.764,0c6.009,6.009,6.009,15.753,0,21.764l-84.174,84.174
		C420.313,311.973,416.375,313.476,412.437,313.476z"/>
	<path style="fill:#ffffff;" d="M496.612,313.476c-3.939,0-7.876-1.503-10.881-4.507l-84.174-84.174
		c-6.009-6.009-6.009-15.753,0-21.764c6.011-6.008,15.752-6.008,21.764,0l84.174,84.174c6.009,6.009,6.009,15.753,0,21.764
		C504.487,311.973,500.55,313.476,496.612,313.476z"/>

</g>
</svg>
