<?xml version="1.0" standalone="no"?>
<!DOCTYPE svg PUBLIC "-//W3C//DTD SVG 20010904//EN"
 "http://www.w3.org/TR/2001/REC-SVG-20010904/DTD/svg10.dtd">
<svg version="1.0" xmlns="http://www.w3.org/2000/svg"
 width="180.000000pt" height="220.000000pt" viewBox="-45 15 280.000000 210.000000"
 preserveAspectRatio="xMidYMid meet">

<g transform="translate(0.000000,220.000000) scale(0.100000,-0.100000)"
fill="#ffffff" stroke="none">
<path d="M790 2179 c-14 -5 -38 -23 -55 -39 -16 -15 -45 -31 -63 -35 -44 -9
-97 -62 -110 -109 -8 -26 -8 -84 -2 -180 23 -361 21 -603 -6 -613 -7 -2 -42
17 -78 44 -36 26 -78 57 -93 68 -41 30 -132 65 -167 65 -103 0 -181 -69 -162
-143 6 -26 32 -53 123 -127 60 -49 101 -94 208 -231 28 -35 85 -98 127 -139
l77 -76 -2 -332 -2 -332 34 0 33 0 -3 333 c-5 380 3 348 -101 445 -33 32 -100
109 -149 172 -87 115 -153 183 -242 250 -25 19 -48 41 -51 48 -18 42 68 88
134 73 47 -10 114 -48 190 -106 30 -24 65 -48 77 -54 32 -16 93 -17 103 -1 22
36 23 326 1 677 -7 119 -2 156 29 188 27 28 75 41 94 25 8 -6 17 -39 21 -73 3
-34 15 -125 25 -202 40 -284 39 -278 22 -298 -21 -23 -15 -25 38 -12 39 10 42
13 23 19 -13 4 -23 10 -23 14 0 17 -70 539 -75 561 -9 35 29 71 75 71 68 0 61
22 128 -455 22 -152 30 -190 43 -193 19 -3 53 73 145 331 35 98 68 186 74 197
15 27 69 26 105 -2 47 -36 34 -103 -65 -353 -46 -115 -87 -213 -92 -216 -4 -3
3 -16 17 -29 l25 -24 -5 30 c-4 21 16 82 73 224 85 211 96 226 143 179 25 -25
25 -29 -21 -234 -17 -77 -38 -169 -46 -205 -7 -36 -19 -135 -24 -220 -14 -207
-27 -256 -98 -359 l-57 -84 0 -311 c-1 -171 1 -332 3 -358 4 -43 7 -48 28 -48
l24 0 0 353 0 353 45 61 c25 33 56 89 69 124 23 61 28 101 42 304 6 100 41
282 99 523 10 37 10 63 3 88 -9 34 -51 84 -69 84 -5 0 -9 20 -9 45 0 60 -38
118 -91 139 -51 20 -62 20 -108 -3 -34 -18 -41 -29 -65 -98 -15 -43 -38 -103
-51 -133 -13 -30 -31 -81 -40 -112 -9 -33 -22 -58 -29 -58 -14 0 -18 24 -52
290 -17 134 -33 183 -70 207 -30 19 -92 26 -124 12z"/>
<path d="M780 1127 c0 -3 25 -24 56 -47 67 -51 104 -119 104 -195 1 -41 3 -47
12 -31 16 28 -5 140 -36 186 -13 21 -40 47 -58 58 -34 20 -78 37 -78 29z"/>
</g>
</svg>
